<?xml version="1.0" encoding="UTF-8" standalone="no"?>
<!-- Created with Inkscape (http://www.inkscape.org/) -->

<svg
   xmlns:dc="http://purl.org/dc/elements/1.1/"
   xmlns:cc="http://creativecommons.org/ns#"
   xmlns:rdf="http://www.w3.org/1999/02/22-rdf-syntax-ns#"
   xmlns:svg="http://www.w3.org/2000/svg"
   xmlns="http://www.w3.org/2000/svg"
   xmlns:sodipodi="http://sodipodi.sourceforge.net/DTD/sodipodi-0.dtd"
   xmlns:inkscape="http://www.inkscape.org/namespaces/inkscape"
   width="112"
   height="112"
   viewBox="0 0 29.633332 29.633334"
   version="1.1"
   id="svg8"
   inkscape:version="0.92.3 (2405546, 2018-03-11)"
   sodipodi:docname="icon-112-112.svg"
   inkscape:export-filename="/home/strukturart/Schreibtisch/icon-112-112.png"
   inkscape:export-xdpi="96"
   inkscape:export-ydpi="96">
  <defs
     id="defs2" />
  <sodipodi:namedview
     id="base"
     pagecolor="#000000"
     bordercolor="#666666"
     borderopacity="1.0"
     inkscape:pageopacity="0"
     inkscape:pageshadow="2"
     inkscape:zoom="1.8547946"
     inkscape:cx="41.350445"
     inkscape:cy="34.852518"
     inkscape:document-units="mm"
     inkscape:current-layer="layer1"
     showgrid="false"
     units="px"
     showguides="false"
     inkscape:window-width="1280"
     inkscape:window-height="745"
     inkscape:window-x="0"
     inkscape:window-y="27"
     inkscape:window-maximized="1"
     inkscape:lockguides="true"
     inkscape:pagecheckerboard="true"
     inkscape:measure-start="0,0"
     inkscape:measure-end="0,0" />
  <metadata
     id="metadata5">
    <rdf:RDF>
      <cc:Work
         rdf:about="">
        <dc:format>image/svg+xml</dc:format>
        <dc:type
           rdf:resource="http://purl.org/dc/dcmitype/StillImage" />
        <dc:title></dc:title>
      </cc:Work>
    </rdf:RDF>
  </metadata>
  <g
     inkscape:label="Ebene 1"
     inkscape:groupmode="layer"
     id="layer1"
     transform="translate(0,-267.36665)">
    <g
       id="g1052"
       transform="translate(0.10376063,3.1750001)" />
    <g
       id="g980"
       transform="translate(-0.29467588,0.57996507)">
      <rect
         ry="3.5218375"
         y="268.03601"
         x="1.6760503"
         height="27.134682"
         width="26.870584"
         id="rect815"
         style="opacity:1;fill:#fc4033;fill-opacity:0.64478766;stroke:#ff5e67;stroke-width:0.52031916;stroke-opacity:0" />
      <g
         transform="matrix(2.1331191,0,0,2.1331191,-1.5608046,-335.36559)"
         id="g916">
        <g
           id="g822"
           transform="translate(0.05525857,-10.862519)">
          <g
             id="g826">
            <g
               id="g890"
               transform="matrix(0.02548991,0,0,0.02548991,1.8074755,294.14262)">
              <g
                 id="g833">
	<g
   id="g831">
		<path
   id="path829"
   d="m 399.697,108.075 c -0.985,-29.884 -1.533,-59.857 -1.239,-89.756 0.011,-1.331 -0.203,-2.506 -0.503,-3.613 C 398.545,8.191 394.711,1.31 386.362,1.529 281.035,4.291 175.733,0.168 70.401,0 61.634,-0.015 57.8,7.686 58.881,14.439 c -0.353,1.176 -0.591,2.44 -0.577,3.88 1.592,125.685 5.909,306.275 6.048,431.985 0,2.813 0.799,5.109 2.079,6.917 0.774,5.331 4.604,10.044 11.527,9.871 45.526,-1.127 91.071,-1.863 136.564,-4.093 40.542,-1.985 91.074,0.676 129.824,-12.558 13.721,-4.688 25.999,-11.613 36.521,-21.643 19.235,-18.337 25.802,-42.949 27.457,-68.888 1.594,-24.912 -1.341,-51.039 -1.925,-73.991 -1.502,-59.294 -4.752,-118.562 -6.702,-177.844 z m -66.648,234.587 c -7.408,0.041 -14.574,5.83 -11.263,14.716 6.662,17.885 9.709,40.096 -0.533,57.198 -12.391,20.683 -34.495,20.119 -55.508,22.77 -12.857,1.62 -26.517,0.762 -39.476,1.133 -10.077,0.284 -137.763,3.397 -137.763,3.895 -0.302,-120.998 -4.301,-296.891 -5.918,-417.871 97.248,0.421 194.466,3.76 291.709,1.681 -0.33,88.933 8.364,232.535 8.958,321.436 -15.087,-4.753 -30.676,-6.769 -46.778,-5.692 -1.26,0.074 -2.377,0.363 -3.428,0.734 z m 9.501,82.69 c 9.765,-16.635 12.207,-37.063 7.124,-59.193 11.761,0.457 23.359,2.727 34.343,7.383 0.046,0.143 0.076,0.29 0.127,0.422 -3.56,26.226 -20.155,42.319 -41.594,51.388 z"
   inkscape:connector-curvature="0" />

	</g>

</g>
              <g
                 id="g835">
</g>
              <g
                 id="g837">
</g>
              <g
                 id="g839">
</g>
              <g
                 id="g841">
</g>
              <g
                 id="g843">
</g>
              <g
                 id="g845">
</g>
              <g
                 id="g847">
</g>
              <g
                 id="g849">
</g>
              <g
                 id="g851">
</g>
              <g
                 id="g853">
</g>
              <g
                 id="g855">
</g>
              <g
                 id="g857">
</g>
              <g
                 id="g859">
</g>
              <g
                 id="g861">
</g>
              <g
                 id="g863">
</g>
            </g>
          </g>
        </g>
        <path
           style="opacity:1;fill:#18df72;fill-opacity:1;stroke:none;stroke-width:0;stroke-miterlimit:4;stroke-dasharray:none;stroke-opacity:1"
           d="m 15.652114,44.703648 c -0.0037,-2.323332 -0.290889,-20.700316 -0.489389,-31.31575 l -0.129771,-6.9399361 2.741585,0.1272654 c 1.507872,0.069996 7.823882,0.1294251 14.035579,0.1320647 l 11.293993,0.0048 0.002,3.2814768 c 0.0011,1.8048122 0.171356,7.8705552 0.378328,13.4794292 0.206975,5.608873 0.377624,11.062561 0.379219,12.119303 l 0.0029,1.921351 -1.286658,-0.270135 c -1.625315,-0.341237 -3.948765,-0.229688 -4.389177,0.210724 -0.278054,0.278053 -0.284781,0.433356 -0.06105,1.409755 0.648245,2.829092 0.447509,4.528844 -0.682559,5.779696 -1.240046,1.372584 -3.07562,1.633209 -12.642146,1.795002 -3.616937,0.06117 -7.155245,0.162405 -7.862907,0.224963 l -1.286659,0.113742 z"
           id="path892"
           inkscape:connector-curvature="0"
           transform="matrix(0.26458333,0,0,0.26458333,0,282.18332)" />
      </g>
    </g>
  </g>
</svg>
